<svg id="Layer_1" data-name="Layer 1" xmlns="http://www.w3.org/2000/svg" width="170" height="120" viewBox="0 0 269.8 126.4">
  <defs>
    <linearGradient id="Gradient1">
      <stop class="stop1" offset="0%" />
      <stop class="stop2" offset="50%" />
      <stop class="stop3" offset="100%" />
    </linearGradient>
    <linearGradient id="Gradient2" x1="0" x2="0" y1="0" y2="1">
      <stop offset="0%" stop-color="white" />
      <stop offset="100%" stop-color="white" />
    </linearGradient>
  </defs>
  <g id="logo-group">
    <g id="logo-center">
      <g id="title">
        <path id="path120204" fill="url(#Gradient2)" d="M79.5,97a3.2,3.2,0,0,1,2.9,1.7,8.3,8.3,0,0,1,1.2,4.8c0,3.8-1,6.8-2.8,8.9-3.5,4.3-8.6,8.3-15.1,11.9A40.6,40.6,0,0,1,45,129.8c-10.1,0-17.9-2.7-23.5-8.2s-8.4-13-8.4-22.5a41.1,41.1,0,0,1,4.2-18.4A34.4,34.4,0,0,1,28.8,67a30,30,0,0,1,16.9-5c5.6,0,10,1.7,13.4,5s5,7.8,5,13.4a23.6,23.6,0,0,1-7.2,17.2c-4.7,4.7-12.7,8.4-24,11.2,2.4,4.4,6.9,6.6,13.7,6.6,4.3,0,9.2-1.5,14.6-4.5A47.3,47.3,0,0,0,75.6,99,5,5,0,0,1,79.5,97ZM43.2,76.1c-3.5,0-6.5,2.1-9,6.2s-3.6,9.1-3.6,15v.3c5.6-1.4,10.1-3.4,13.4-6.1s4.9-5.8,4.9-9.4a6.1,6.1,0,0,0-1.6-4.3,5.2,5.2,0,0,0-4.1-1.7Z" transform="translate(-13.1 -3.4)"/>
      </g>
    </g>
  </g>
</svg>
